<svg id="Livello_1" data-name="Livello 1" xmlns="http://www.w3.org/2000/svg" viewBox="0 0 101.65 42.85"><defs><style>.cls-1{fill:#f4eab4;stroke:#ccc193;stroke-miterlimit:10;}</style></defs><title>osso</title><path class="cls-1" d="M287.85,440.57c-.59.31-3.06-1.38-3.54-1.72a9.6,9.6,0,0,1-3.6-4.25c-1.38-3.49.49-9.49,2.74-12.18,3.55-4.25,8.78-2.54,12.83,0a63.77,63.77,0,0,1,7.12,5.33l53.54-.51c.53,0,2.31-2.53,2.75-3a30,30,0,0,1,4.14-3.49,10.36,10.36,0,0,1,11.11-.63c3.81,2.28,6.86,6.84,5,11.48-1.22,3.08-4.49,6.15-7,8.13,0,0,15.59,12,1.48,18.83,0,0-11.15,4.77-17.79-6.73l-51.66.86c-.31,0-1.93,2-2.19,2.27a28.52,28.52,0,0,1-5.92,4.26,11.85,11.85,0,0,1-13.63-1.67,11.19,11.19,0,0,1-3.35-7.16C279.87,445.79,284.12,442.52,287.85,440.57Z" transform="translate(-279.36 -418.32)"/></svg>