<svg id="Livello_1" data-name="Livello 1" xmlns="http://www.w3.org/2000/svg" viewBox="0 0 100.65 156.65"><defs><style>.cls-1{fill:#bfe6f1;}.cls-2{fill:#d1ccb8;}.cls-3{fill:#ca1e4e;}</style></defs><title>Senza titolo-1</title><path class="cls-1" d="M316.13,376.62c2.58,5.24,1.87,10.88-1.6,12.59s-8.38-1.16-11-6.4-1.86-10.88,1.6-12.59S313.55,371.37,316.13,376.62Z" transform="translate(-279.86 -352.95)"/><path class="cls-1" d="M348.1,367.32c-1.49,6.37-6.17,10.71-10.45,9.7s-6.54-7-5-13.34,6.18-10.7,10.45-9.7S349.6,361,348.1,367.32Z" transform="translate(-279.86 -352.95)"/><path class="cls-1" d="M329.8,363c1.65,6.48-.28,12.57-4.32,13.61s-8.66-3.39-10.31-9.87.28-12.57,4.32-13.6S328.15,356.48,329.8,363Z" transform="translate(-279.86 -352.95)"/><path class="cls-1" d="M358,385.16c-1.33,5.46-5.62,9.1-9.6,8.14s-6.13-6.17-4.81-11.63,5.62-9.11,9.6-8.14S359.29,379.7,358,385.16Z" transform="translate(-279.86 -352.95)"/><path class="cls-1" d="M311.63,399.33s7.45-17,18.17-17c0,0,14.11-.53,17.9,21.29a5.35,5.35,0,0,1-4.85,6.46c-3.92.3-7.59-2-11.44-2.28-5.48-.44-16.4,5.77-20.05-1.31C310.43,404.71,310.69,401.09,311.63,399.33Z" transform="translate(-279.86 -352.95)"/><path class="cls-2" d="M287.85,440.57c-.59.31-3.06-1.38-3.54-1.72a9.6,9.6,0,0,1-3.6-4.25c-1.38-3.49.49-9.49,2.74-12.18,3.55-4.25,8.78-2.54,12.83,0a63.77,63.77,0,0,1,7.12,5.33l53.54-.51c.53,0,2.31-2.53,2.75-3a30,30,0,0,1,4.14-3.49,10.36,10.36,0,0,1,11.11-.63c3.81,2.28,6.86,6.84,5,11.48-1.22,3.08-4.49,6.15-7,8.13,0,0,15.59,12,1.48,18.83,0,0-11.15,4.77-17.79-6.73l-51.66.86c-.31,0-1.93,2-2.19,2.27a28.52,28.52,0,0,1-5.92,4.26,11.85,11.85,0,0,1-13.63-1.67,11.19,11.19,0,0,1-3.35-7.16C279.87,445.79,284.12,442.52,287.85,440.57Z" transform="translate(-279.86 -352.95)"/><path class="cls-3" d="M332.14,477.92s.13-9.14,11.81-8.54a10.7,10.7,0,0,1,6.81,2.74c5,4.56,5,13.28.25,18.18l-18.87,19.3-18.87-19.3c-4.79-4.9-4.79-13.62.25-18.18a10.7,10.7,0,0,1,6.81-2.74C332,468.78,332.14,477.92,332.14,477.92Z" transform="translate(-279.86 -352.95)"/></svg>