<svg id="Livello_1" data-name="Livello 1" xmlns="http://www.w3.org/2000/svg" viewBox="0 0 11.15 10.76"><defs><style>.cls-1{fill:#bfe6f1;stroke:#4768b1;stroke-miterlimit:10;stroke-width:0.5px;}</style></defs><title>zampa-1</title><path class="cls-1" d="M304.55,357.19c.46.94.34,2-.29,2.26s-1.5-.2-2-1.15-.34-1.95.28-2.25S304.09,356.25,304.55,357.19Z" transform="translate(-301.77 -352.7)"/><path class="cls-1" d="M310.56,355.53c-.27,1.14-1.11,1.92-1.88,1.74s-1.17-1.25-.9-2.4,1.11-1.92,1.87-1.74S310.83,354.38,310.56,355.53Z" transform="translate(-301.77 -352.7)"/><path class="cls-1" d="M307,354.74c.3,1.17-.05,2.26-.77,2.44s-1.55-.6-1.85-1.77.05-2.25.77-2.44S306.71,353.58,307,354.74Z" transform="translate(-301.77 -352.7)"/><path class="cls-1" d="M312.6,358.46c-.24,1-1,1.63-1.72,1.46a1.65,1.65,0,0,1-.87-2.09c.24-1,1-1.63,1.73-1.46A1.64,1.64,0,0,1,312.6,358.46Z" transform="translate(-301.77 -352.7)"/><path class="cls-1" d="M304,361.27s1.34-3,3.26-3c0,0,2.54-.09,3.22,3.82a1,1,0,0,1-.87,1.16,12.12,12.12,0,0,1-2.06-.41c-1-.08-2.94,1-3.59-.23A1.74,1.74,0,0,1,304,361.27Z" transform="translate(-301.77 -352.7)"/></svg>